<svg xmlns="http://www.w3.org/2000/svg" xmlns:xlink="http://www.w3.org/1999/xlink" viewBox="0 0 874.01 177"><defs><style>.cls-1{fill:url(#linear-gradient);}.cls-2{fill:url(#linear-gradient-2);}.cls-3{fill:url(#linear-gradient-3);}.cls-4{fill:url(#linear-gradient-4);}.cls-5{fill:#061a38;}.cls-6{fill:#fff;}</style><linearGradient id="linear-gradient" x1="371.3" y1="69.18" x2="520.68" y2="69.18" gradientUnits="userSpaceOnUse"><stop offset="0" stop-color="blue"/><stop offset="1" stop-color="#2e3192"/></linearGradient><linearGradient id="linear-gradient-2" x1="495.43" y1="39.87" x2="615.45" y2="39.87" xlink:href="#linear-gradient"/><linearGradient id="linear-gradient-3" x1="358.51" y1="136.92" x2="480.4" y2="136.92" xlink:href="#linear-gradient"/><linearGradient id="linear-gradient-4" x1="467.14" y1="109.12" x2="611.66" y2="109.12" xlink:href="#linear-gradient"/></defs><g id="Layer_2" data-name="Layer 2"><g id="Layer_2-2" data-name="Layer 2"><path class="cls-1" d="M507.74,101,496.4,113.55a5.26,5.26,0,0,1-7.85,0L410.6,25a5.26,5.26,0,0,1,3.94-8.73h36.17A5.3,5.3,0,0,1,454.56,18L472,36.63a5.26,5.26,0,0,0,7.82-.14l4-4.57a5.25,5.25,0,0,0-.09-7L462.5,1.72A5.25,5.25,0,0,0,458.61,0h-82a5.26,5.26,0,0,0-3.89,8.79L488.59,136.63a5.26,5.26,0,0,0,7.76,0l22.94-24.84a5.25,5.25,0,0,0-.15-7.28l-3.78-3.78A5.26,5.26,0,0,0,507.74,101Z" transform="translate(-5.99)"/><polygon class="cls-2" points="527.16 16.28 579.76 16.28 534.05 67.84 543.44 79.73 615.45 0 521.94 0 495.43 27.97 505.45 39.66 527.16 16.28"/><polygon class="cls-3" points="448.26 161.14 397.33 160.72 443.67 108.12 433.02 96.85 358.51 177 455.15 177 480.4 149.45 469.34 136.93 448.26 161.14"/><path class="cls-4" d="M469.3,75.4h0a7.62,7.62,0,0,0,11.26-.35l6.38-7.46a7.62,7.62,0,0,1,11.33-.28l75.91,80.12a7.62,7.62,0,0,1-5.54,12.87H535.85a7.63,7.63,0,0,1-5.82-2.69l-12.09-14.25a7.62,7.62,0,0,0-11.31-.36l-.36.38a7.62,7.62,0,0,0-.27,10.29l18,20.7a7.63,7.63,0,0,0,5.76,2.63H604a7.63,7.63,0,0,0,5.61-12.8L498.3,43.7a7.62,7.62,0,0,0-11.42.25L468.94,65.17A7.61,7.61,0,0,0,469.3,75.4Z" transform="translate(-5.99)"/><path class="cls-5" d="M27.42,19V51.66a10.1,10.1,0,0,1,4.87-3.74,21.6,21.6,0,0,1,7.26-1.05,23.26,23.26,0,0,1,7.27,1,9.93,9.93,0,0,1,4.64,3.07,13.15,13.15,0,0,1,2.48,5.62,43,43,0,0,1,.74,8.62v72.21H33.11v-68a6.37,6.37,0,0,0-.37-2.55c-.25-.5-.93-.75-2-.75a3.55,3.55,0,0,0-2.17.53,3.85,3.85,0,0,0-1.12,1.57v69.22H6V19Z" transform="translate(-5.99)"/><path class="cls-5" d="M84.2,99.46v17.82a5.23,5.23,0,0,0,.45,2.63c.3.44,1,.67,2.25.67s2.09-.23,2.39-.67a5.23,5.23,0,0,0,.45-2.63V106.8h19.48v13a42.25,42.25,0,0,1-1,10.11,10.29,10.29,0,0,1-3.45,5.77A13.93,13.93,0,0,1,98,138.26a85,85,0,0,1-11.23.6,95,95,0,0,1-11.91-.6,14.36,14.36,0,0,1-7.12-2.62,10.09,10.09,0,0,1-3.45-5.77,44.76,44.76,0,0,1-.89-10V65.15a44.76,44.76,0,0,1,.89-10,10.09,10.09,0,0,1,3.45-5.77,14.27,14.27,0,0,1,7.12-2.62,95,95,0,0,1,11.91-.6,85,85,0,0,1,11.23.6,14,14,0,0,1,6.82,2.54A10.32,10.32,0,0,1,108.25,55a42.4,42.4,0,0,1,1,10.12V99.46ZM84.2,83h5.54V68.14a5.21,5.21,0,0,0-.45-2.62c-.3-.45-1.1-.67-2.39-.67s-2,.22-2.25.67a5.21,5.21,0,0,0-.45,2.62Z" transform="translate(-5.99)"/><path class="cls-5" d="M144.88,73.54v-4.2a5.19,5.19,0,0,0-.45-2.62c-.3-.45-1.1-.68-2.4-.68s-1.95.23-2.25.68a5.19,5.19,0,0,0-.45,2.62v4.49a8.7,8.7,0,0,0,.53,3.6,6.49,6.49,0,0,0,2.47,2.25l16.18,9A28.66,28.66,0,0,1,162,91a9.44,9.44,0,0,1,2.25,2.47,8.83,8.83,0,0,1,1.12,3.22,29.58,29.58,0,0,1,.3,4.57v18.58a41.39,41.39,0,0,1-1,10,10.27,10.27,0,0,1-3.6,5.77,14.83,14.83,0,0,1-7.19,2.62,95.17,95.17,0,0,1-11.91.6,95.61,95.61,0,0,1-11.84-.6,14.49,14.49,0,0,1-7.19-2.62,10.44,10.44,0,0,1-3.52-5.77,41.39,41.39,0,0,1-1-10V105.9h20.82v9.74a5.21,5.21,0,0,0,.45,2.62c.3.45,1.05.67,2.25.67s2.1-.22,2.4-.67a5.21,5.21,0,0,0,.45-2.62v-7.5a6.79,6.79,0,0,0-.6-3.44,6.29,6.29,0,0,0-2.25-1.8L127.2,94.81a29.42,29.42,0,0,1-4.42-2.92,10.92,10.92,0,0,1-2.7-3.22,12,12,0,0,1-1.27-4.35,55,55,0,0,1-.3-6.29V65.15a41.39,41.39,0,0,1,1-10A10.44,10.44,0,0,1,123,49.34a14.39,14.39,0,0,1,7.19-2.62,95.61,95.61,0,0,1,11.84-.6,95.17,95.17,0,0,1,11.91.6,14.73,14.73,0,0,1,7.19,2.62,10.27,10.27,0,0,1,3.6,5.77,41.39,41.39,0,0,1,1,10v8.39Z" transform="translate(-5.99)"/><path class="cls-5" d="M197.76,138.86q-6.88,0-11.31-.38a14.58,14.58,0,0,1-7-2.09,8.93,8.93,0,0,1-3.53-5.25,37.71,37.71,0,0,1-1-9.66V99.75q0-8.09,3.22-11.83t11.46-3.75h4.2c1.59,0,2.84,0,3.74.08a11,11,0,0,1,2.4.37V67.54a5.21,5.21,0,0,0-.45-2.62c-.3-.45-1.1-.67-2.4-.67s-1.94.22-2.24.67a5.21,5.21,0,0,0-.45,2.62v8.24H175V65.15a45.77,45.77,0,0,1,.9-10.12,10,10,0,0,1,3.37-5.77,14,14,0,0,1,6.82-2.54,85,85,0,0,1,11.23-.6,95.23,95.23,0,0,1,11.92.6,14.27,14.27,0,0,1,7.11,2.62,10.44,10.44,0,0,1,3.52,5.77,41.31,41.31,0,0,1,1,10v72.21a21.08,21.08,0,0,1-4.05.75q-2.7.3-6,.45t-6.74.22Q200.61,138.86,197.76,138.86Zm-3.29-21a5.19,5.19,0,0,0,.45,2.62c.3.45,1.1.68,2.39.68a9.1,9.1,0,0,0,2.7-.3V99.46a14.55,14.55,0,0,0-2.85-.3c-1.19,0-1.94.22-2.24.67a5.19,5.19,0,0,0-.45,2.62Z" transform="translate(-5.99)"/><path class="cls-5" d="M232.22,160.28V47.62h19.93v4A9.16,9.16,0,0,1,256.94,48a30.64,30.64,0,0,1,15.58-.22,8.21,8.21,0,0,1,4.35,3,12.88,12.88,0,0,1,2,5.62,61,61,0,0,1,.53,8.77v54.68a59.69,59.69,0,0,1-.53,8.62,13.44,13.44,0,0,1-1.95,5.61,8.08,8.08,0,0,1-4.12,3.07,21.09,21.09,0,0,1-7,1,21.7,21.7,0,0,1-7.27-1.05,10.14,10.14,0,0,1-4.86-3.75v27Zm26.37-90.94a6.37,6.37,0,0,0-.37-2.55c-.26-.5-.93-.75-2-.75a3.55,3.55,0,0,0-2.17.53,2.92,2.92,0,0,0-1,1.57v48.69a3,3,0,0,0,1,1.58,3.55,3.55,0,0,0,2.17.52c1.1,0,1.77-.25,2-.75a6.35,6.35,0,0,0,.37-2.54Z" transform="translate(-5.99)"/><path class="cls-5" d="M311.62,19V51.66a10.19,10.19,0,0,1,4.87-3.74,21.7,21.7,0,0,1,7.27-1.05,21.12,21.12,0,0,1,7,1,8.19,8.19,0,0,1,4.12,3.07,13.55,13.55,0,0,1,1.95,5.62,59.85,59.85,0,0,1,.52,8.62v54.68a60.89,60.89,0,0,1-.52,8.76,12.91,12.91,0,0,1-2,5.62,8.17,8.17,0,0,1-4.35,3,30.5,30.5,0,0,1-15.58-.23,9.11,9.11,0,0,1-4.79-3.67v4.05H290.2V19Zm4.95,50.34a6.16,6.16,0,0,0-.38-2.55c-.25-.5-.92-.75-2-.75a3.55,3.55,0,0,0-2.17.53,2.92,2.92,0,0,0-1,1.57v48.69a3,3,0,0,0,1,1.58,3.55,3.55,0,0,0,2.17.52c1.1,0,1.77-.25,2-.75a6.14,6.14,0,0,0,.38-2.54Z" transform="translate(-5.99)"/><path class="cls-5" d="M394.18,119.83a41.31,41.31,0,0,1-1,10,10.31,10.31,0,0,1-3.59,5.77,14.87,14.87,0,0,1-7.2,2.62,117.71,117.71,0,0,1-23.74,0,14.41,14.41,0,0,1-7.19-2.62,10.39,10.39,0,0,1-3.52-5.77,40.82,40.82,0,0,1-1-10V65.15a40.82,40.82,0,0,1,1-10,10.39,10.39,0,0,1,3.52-5.77,14.32,14.32,0,0,1,7.19-2.62,117.71,117.71,0,0,1,23.74,0,14.77,14.77,0,0,1,7.2,2.62,10.31,10.31,0,0,1,3.59,5.77,41.31,41.31,0,0,1,1,10Zm-26.37-4.19a5.21,5.21,0,0,0,.45,2.62c.3.45,1.05.67,2.24.67s2.1-.22,2.4-.67a5.21,5.21,0,0,0,.45-2.62V69.34a5.19,5.19,0,0,0-.45-2.62c-.3-.45-1.1-.68-2.4-.68s-1.94.23-2.24.68a5.19,5.19,0,0,0-.45,2.62Z" transform="translate(-5.99)"/><path class="cls-5" d="M644.4,46H866.17A7.83,7.83,0,0,1,874,53.83V88.67A40.33,40.33,0,0,1,833.67,129H613.84a7.83,7.83,0,0,1-7.83-7.83V84.39A38.39,38.39,0,0,1,644.4,46Z"/><path class="cls-6" d="M698.65,109.12h-9.91V99.48h9.91Z" transform="translate(-5.99)"/><path class="cls-6" d="M712.6,99.21a2.43,2.43,0,0,0,.2,1.19c.14.21.48.31,1,.31s1-.1,1.09-.31a2.29,2.29,0,0,0,.21-1.19V89.84H724v11.28a19.16,19.16,0,0,1-.45,4.62,4.72,4.72,0,0,1-1.57,2.63,6.36,6.36,0,0,1-3.11,1.16,39.39,39.39,0,0,1-5.13.27,44.12,44.12,0,0,1-5.44-.27,6.4,6.4,0,0,1-3.24-1.2,4.59,4.59,0,0,1-1.58-2.63,20.57,20.57,0,0,1-.41-4.58v-25a20.67,20.67,0,0,1,.41-4.59A4.63,4.63,0,0,1,705.08,69a6.59,6.59,0,0,1,3.24-1.2,44.12,44.12,0,0,1,5.44-.27,39.39,39.39,0,0,1,5.13.27A6.46,6.46,0,0,1,722,68.92a4.72,4.72,0,0,1,1.57,2.63,19.1,19.1,0,0,1,.45,4.62v7.17h-8.89V78.08a2.36,2.36,0,0,0-.21-1.2c-.13-.2-.5-.3-1.09-.3s-.89.1-1,.3a2.5,2.5,0,0,0-.2,1.2Z" transform="translate(-5.99)"/><path class="cls-6" d="M749.79,101.12a19.21,19.21,0,0,1-.44,4.58,4.72,4.72,0,0,1-1.64,2.63,6.67,6.67,0,0,1-3.28,1.2,54.54,54.54,0,0,1-10.84,0,6.45,6.45,0,0,1-3.28-1.2,4.74,4.74,0,0,1-1.61-2.63,18.63,18.63,0,0,1-.45-4.58v-25a18.72,18.72,0,0,1,.45-4.59A4.77,4.77,0,0,1,730.31,69a6.63,6.63,0,0,1,3.28-1.2,54.54,54.54,0,0,1,10.84,0,6.87,6.87,0,0,1,3.28,1.2,4.76,4.76,0,0,1,1.64,2.63,19.3,19.3,0,0,1,.44,4.59Zm-12-1.91a2.43,2.43,0,0,0,.2,1.19c.14.21.48.31,1,.31s1-.1,1.09-.31a2.29,2.29,0,0,0,.21-1.19V78.08a2.36,2.36,0,0,0-.21-1.2c-.13-.2-.5-.3-1.09-.3s-.89.1-1,.3a2.5,2.5,0,0,0-.2,1.2Z" transform="translate(-5.99)"/><path class="cls-6" d="M789.31,109.12h-9.77v-31a2.67,2.67,0,0,0-.18-1.16c-.11-.23-.42-.34-.92-.34a1.72,1.72,0,0,0-1,.23,1.67,1.67,0,0,0-.51.72v31.59h-9.85v-31a2.87,2.87,0,0,0-.17-1.16c-.11-.23-.42-.34-.92-.34a1.68,1.68,0,0,0-1,.23,1.77,1.77,0,0,0-.52.72v31.59h-9.77V68.17h9.09V70A4.19,4.19,0,0,1,766,68.34a10.91,10.91,0,0,1,3.69-.52,11.48,11.48,0,0,1,3.93.58,4.22,4.22,0,0,1,2.29,1.95,5.35,5.35,0,0,1,2.43-1.95,10.86,10.86,0,0,1,3.86-.58,12.21,12.21,0,0,1,3.42.41,4.49,4.49,0,0,1,2.19,1.41A5.9,5.9,0,0,1,789,72.23a19.25,19.25,0,0,1,.34,3.94Z" transform="translate(-5.99)"/></g></g></svg>